# xmcd
#
# Track frame offsets:
#	150
#	24011
#	41295
#	60901
#	81114
#	83203
#	104869
#	118483
#	122498
#	139056
#	154028
#	167782
#	174033
#
# Disc length: 2529 seconds
# Revision: 0
# Processed by: cddbd v1.5.2PL0 Copyright (c) Steve Scherf et al.
# Submitted via: dBpowerAMP V12.0
#
DISCID=9a09df0d
DTITLE=Lonesome Wyatt And The Holy Spooks - Moldy Basement Tapes Vol. 2
DYEAR=2012
DGENRE=
TTITLE0=In Walks The Broomstick
TTITLE1=Glowing Eyes Of Falling Snow
TTITLE2=The Sideshow Is Coming
TTITLE3=Crazyface
TTITLE4=Bless This Girl
TTITLE5=Floating Girl
TTITLE6=Owls Are Calling
TTITLE7=Carnival Man
TTITLE8=Sinking Girl
TTITLE9=The Moon Begins To Sing
TTITLE10=Pale Things
TTITLE11=Dying Apple Tree
TTITLE12=Gloomy Room
EXTD=
EXTT0=
EXTT1=
EXTT2=
EXTT3=
EXTT4=
EXTT5=
EXTT6=
EXTT7=
EXTT8=
EXTT9=
EXTT10=
EXTT11=
EXTT12=
PLAYORDER=
